<?xml version="1.0" standalone="no"?><!-- Generator: Gravit.io --><svg xmlns="http://www.w3.org/2000/svg" xmlns:xlink="http://www.w3.org/1999/xlink" style="isolation:isolate" viewBox="6 6 588 588" width="588" height="588"><g><g><path d=" M 355.751 261.002 L 311.832 423.051 L 274.349 423.051 L 200.518 173.163 L 233.079 173.163 L 293.28 399.198 L 352.344 173.163 L 386.798 173.163 L 445.862 399.955 L 506.441 173.163 L 537.109 173.163 L 463.657 423.051 L 426.174 423.051 L 381.876 261.002 L 370.819 214.199 L 368.624 204.588 L 355.751 261.002 Z " fill="rgb(0,0,0)" vector-effect="non-scaling-stroke" stroke-width="4" stroke="rgb(255,255,255)" stroke-linejoin="miter" stroke-linecap="square" stroke-miterlimit="3"/><path d=" M 223.046 173.163 L 223.046 337.483 L 223.046 337.483 Q 223.046 379.51 200.518 403.173 L 200.518 403.173 L 200.518 403.173 Q 177.991 426.837 138.236 426.837 L 138.236 426.837 L 138.236 426.837 Q 102.267 426.837 82.579 409.231 L 82.579 409.231 L 82.579 409.231 Q 62.891 391.625 62.891 360.579 L 62.891 360.579 L 62.891 360.579 Q 62.891 349.599 64.784 340.512 L 64.784 340.512 L 92.802 334.833 L 92.802 334.833 Q 91.287 347.706 91.287 353.006 L 91.287 353.006 L 91.287 353.006 Q 91.287 376.102 102.267 387.271 L 102.267 387.271 L 102.267 387.271 Q 113.247 398.441 137.1 398.441 L 137.1 398.441 L 137.1 398.441 Q 168.146 398.441 180.452 381.781 L 180.452 381.781 L 180.452 381.781 Q 192.757 365.122 192.757 329.911 L 192.757 329.911 L 192.757 173.163 L 223.046 173.163 Z " fill="rgb(0,0,0)" vector-effect="non-scaling-stroke" stroke-width="4" stroke="rgb(255,255,255)" stroke-linejoin="miter" stroke-linecap="square" stroke-miterlimit="3"/></g><circle vector-effect="non-scaling-stroke" cx="299.99999999999994" cy="299.99999999999994" r="286.5" fill="none" stroke-width="15" stroke="rgb(0,0,0)" stroke-linejoin="miter" stroke-linecap="square" stroke-miterlimit="3"/></g></svg>