<?xml version="1.0" standalone="no"?><!-- Generator: Gravit.io --><svg xmlns="http://www.w3.org/2000/svg" xmlns:xlink="http://www.w3.org/1999/xlink" style="isolation:isolate" viewBox="30 26 1829 149" width="1829" height="149"><g><g><circle vector-effect="non-scaling-stroke" cx="0" cy="0" r="1" transform="matrix(25,0,0,25,1071,51)" fill="rgb(44,62,80)"/><g><circle vector-effect="non-scaling-stroke" cx="0" cy="0" r="1" transform="matrix(25,0,0,25,940.556,51)" fill="rgb(44,62,80)"/><path d="M 815.556 26 L 876.889 26 C 890.687 26 901.889 37.202 901.889 51 L 901.889 51 C 901.889 64.798 890.687 76 876.889 76 L 815.556 76 C 801.758 76 790.556 64.798 790.556 51 L 790.556 51 C 790.556 37.202 801.758 26 815.556 26 Z" style="stroke:none;fill:#2C3E50;stroke-miterlimit:10;"/></g><g><circle vector-effect="non-scaling-stroke" cx="0" cy="0" r="1" transform="matrix(25,0,0,25,559.778,51)" fill="rgb(44,62,80)"/><path d="M 623.778 26 L 685.111 26 C 698.909 26 710.111 37.202 710.111 51 L 710.111 51 C 710.111 64.798 698.909 76 685.111 76 L 623.778 76 C 609.98 76 598.778 64.798 598.778 51 L 598.778 51 C 598.778 37.202 609.98 26 623.778 26 Z" style="stroke:none;fill:#2C3E50;stroke-miterlimit:10;"/></g><g><circle vector-effect="non-scaling-stroke" cx="0" cy="0" r="1" transform="matrix(25,0,0,25,55,51)" fill="rgb(44,62,80)"/><path d="M 119 26 L 180.333 26 C 194.131 26 205.333 37.202 205.333 51 L 205.333 51 C 205.333 64.798 194.131 76 180.333 76 L 119 76 C 105.202 76 94 64.798 94 51 L 94 51 C 94 37.202 105.202 26 119 26 Z" style="stroke:none;fill:#2C3E50;stroke-miterlimit:10;"/><path d="M 244.333 26 L 305.667 26 C 319.465 26 330.667 37.202 330.667 51 L 330.667 51 C 330.667 64.798 319.465 76 305.667 76 L 244.333 76 C 230.535 76 219.333 64.798 219.333 51 L 219.333 51 C 219.333 37.202 230.535 26 244.333 26 Z" style="stroke:none;fill:#2C3E50;stroke-miterlimit:10;"/><path d="M 368 26 L 429.333 26 C 443.131 26 454.333 37.202 454.333 51 L 454.333 51 C 454.333 64.798 443.131 76 429.333 76 L 368 76 C 354.202 76 343 64.798 343 51 L 343 51 C 343 37.202 354.202 26 368 26 Z" style="stroke:none;fill:#2C3E50;stroke-miterlimit:10;"/></g></g><g><g><circle vector-effect="non-scaling-stroke" cx="0" cy="0" r="1" transform="matrix(25,0,0,25,55,149)" fill="rgb(44,62,80)"/><path d="M 119 124 L 180.333 124 C 194.131 124 205.333 135.202 205.333 149 L 205.333 149 C 205.333 162.798 194.131 174 180.333 174 L 119 174 C 105.202 174 94 162.798 94 149 L 94 149 C 94 135.202 105.202 124 119 124 Z" style="stroke:none;fill:#2C3E50;stroke-miterlimit:10;"/><path d="M 244.333 124 L 305.667 124 C 319.465 124 330.667 135.202 330.667 149 L 330.667 149 C 330.667 162.798 319.465 174 305.667 174 L 244.333 174 C 230.535 174 219.333 162.798 219.333 149 L 219.333 149 C 219.333 135.202 230.535 124 244.333 124 Z" style="stroke:none;fill:#2C3E50;stroke-miterlimit:10;"/></g><g><circle vector-effect="non-scaling-stroke" cx="0" cy="0" r="1" transform="matrix(25,0,0,25,427.2,149)" fill="rgb(44,62,80)"/><circle vector-effect="non-scaling-stroke" cx="0" cy="0" r="1" transform="matrix(25,0,0,25,493.2,149)" fill="rgb(44,62,80)"/></g><g><circle vector-effect="non-scaling-stroke" cx="0" cy="0" r="1" transform="matrix(25,0,0,25,810.733,149)" fill="rgb(44,62,80)"/><circle vector-effect="non-scaling-stroke" cx="0" cy="0" r="1" transform="matrix(25,0,0,25,876.733,149)" fill="rgb(44,62,80)"/><circle vector-effect="non-scaling-stroke" cx="0" cy="0" r="1" transform="matrix(25,0,0,25,614.733,150)" fill="rgb(44,62,80)"/><path d="M 678.733 125 L 740.067 125 C 753.865 125 765.067 136.202 765.067 150 L 765.067 150 C 765.067 163.798 753.865 175 740.067 175 L 678.733 175 C 664.935 175 653.733 163.798 653.733 150 L 653.733 150 C 653.733 136.202 664.935 125 678.733 125 Z" style="stroke:none;fill:#2C3E50;stroke-miterlimit:10;"/></g><g><circle vector-effect="non-scaling-stroke" cx="0" cy="0" r="1" transform="matrix(25,0,0,25,998.267,149)" fill="rgb(44,62,80)"/><circle vector-effect="non-scaling-stroke" cx="0" cy="0" r="1" transform="matrix(25,0,0,25,1064.267,149)" fill="rgb(44,62,80)"/><circle vector-effect="non-scaling-stroke" cx="0" cy="0" r="1" transform="matrix(25,0,0,25,1128.267,149)" fill="rgb(44,62,80)"/></g><g><path d="M 1249.8 125 L 1311.133 125 C 1324.931 125 1336.133 136.202 1336.133 150 L 1336.133 150 C 1336.133 163.798 1324.931 175 1311.133 175 L 1249.8 175 C 1236.002 175 1224.8 163.798 1224.8 150 L 1224.8 150 C 1224.8 136.202 1236.002 125 1249.8 125 Z" style="stroke:none;fill:#2C3E50;stroke-miterlimit:10;"/><path d="M 1383.467 125 L 1444.8 125 C 1458.598 125 1469.8 136.202 1469.8 150 L 1469.8 150 C 1469.8 163.798 1458.598 175 1444.8 175 L 1383.467 175 C 1369.669 175 1358.467 163.798 1358.467 150 L 1358.467 150 C 1358.467 136.202 1369.669 125 1383.467 125 Z" style="stroke:none;fill:#2C3E50;stroke-miterlimit:10;"/><path d="M 1517.133 125 L 1578.467 125 C 1592.265 125 1603.467 136.202 1603.467 150 L 1603.467 150 C 1603.467 163.798 1592.265 175 1578.467 175 L 1517.133 175 C 1503.335 175 1492.133 163.798 1492.133 150 L 1492.133 150 C 1492.133 136.202 1503.335 125 1517.133 125 Z" style="stroke:none;fill:#2C3E50;stroke-miterlimit:10;"/></g><g><path d="M 1700 125 L 1761.333 125 C 1775.131 125 1786.333 136.202 1786.333 150 L 1786.333 150 C 1786.333 163.798 1775.131 175 1761.333 175 L 1700 175 C 1686.202 175 1675 163.798 1675 150 L 1675 150 C 1675 136.202 1686.202 125 1700 125 Z" style="stroke:none;fill:#2C3E50;stroke-miterlimit:10;"/><circle vector-effect="non-scaling-stroke" cx="0" cy="0" r="1" transform="matrix(25,0,0,25,1834,149)" fill="rgb(44,62,80)"/></g></g></g></svg>